<?xml version="1.0" encoding="UTF-8" standalone="no"?>
<svg xmlns:dc="http://purl.org/dc/elements/1.1/" xmlns:cc="http://creativecommons.org/ns#" xmlns:rdf="http://www.w3.org/1999/02/22-rdf-syntax-ns#" xmlns:svg="http://www.w3.org/2000/svg" xmlns="http://www.w3.org/2000/svg" xmlns:sodipodi="http://sodipodi.sourceforge.net/DTD/sodipodi-0.dtd" xmlns:inkscape="http://www.inkscape.org/namespaces/inkscape" id="Layer_1" data-name="Layer 1" viewBox="0 0 23.76 23.76" version="1.1" sodipodi:docname="C21_Patterns_block-04 - Copy.svg" inkscape:version="0.92.3 (2405546, 2018-03-11)">
  <metadata id="metadata174">
    <rdf:RDF>
      <cc:Work rdf:about="">
        <dc:format>image/svg+xml</dc:format>
        <dc:type rdf:resource="http://purl.org/dc/dcmitype/StillImage"/>
      </cc:Work>
    </rdf:RDF>
  </metadata>
  <sodipodi:namedview pagecolor="#ffffff" bordercolor="#666666" borderopacity="1" objecttolerance="10" gridtolerance="10" guidetolerance="10" inkscape:pageopacity="0" inkscape:pageshadow="2" inkscape:window-width="1366" inkscape:window-height="706" id="namedview172" showgrid="false" inkscape:zoom="9.9326598" inkscape:cx="-9.0008402" inkscape:cy="3.8257627" inkscape:window-x="-8" inkscape:window-y="-8" inkscape:window-maximized="1" inkscape:current-layer="Layer_1"/>
  <defs id="defs133">
    <style id="style128">.cls-1{fill:none;}.cls-2{clip-path:url(#clip-path);}.cls-3{fill:#BEAF87;}.cls-4{fill:#BEAF87;}</style>
    <clipPath id="clip-path">
      <rect class="cls-1" x="-543.9067" y="-228.4533" width="360" height="360" id="rect130"/>
    </clipPath>
  </defs>
  <title id="title135">C21_Patterns_block</title>
  <rect class="cls-1" width="23.76" height="23.76" id="rect137" style="opacity:0.3"/>
  <g class="cls-2" clip-path="url(#clip-path)" id="g167" style="opacity:0.3">
    <polygon class="cls-3" points="8.218 -2.215 8.211 -2.221 7.223 -2.042 7.731 -1.533 5.256 0.942 5.84 1.526 8.899 -1.533 8.218 -2.215" id="polygon139" style=""/>
    <path class="cls-3" d="M4.15,2.2262a4.1543,4.1543,0,0,1-1.383-.9187A4.1559,4.1559,0,0,1,1.8481-.0754,4.17,4.17,0,0,1,1.542-1.6495a4.17,4.17,0,0,1,.3061-1.5741,4.1559,4.1559,0,0,1,.9187-1.3829A4.1543,4.1543,0,0,1,4.15-5.5252a4.1676,4.1676,0,0,1,1.5741-.3062,4.1675,4.1675,0,0,1,1.574.3062,4.1543,4.1543,0,0,1,1.383.9187A4.1529,4.1529,0,0,1,9.6-3.2236a4.1631,4.1631,0,0,1,.2174.714l.8129-.1469A4.9845,4.9845,0,0,0,9.2652-5.1908a5.0083,5.0083,0,0,0-7.0827,0,5.0082,5.0082,0,0,0,0,7.0826A4.9861,4.9861,0,0,0,4.8344,3.2792l.1469-.8127A4.1613,4.1613,0,0,1,4.15,2.2262Z" id="path141" style=""/>
    <polygon class="cls-3" points="-3.035 4.072 -3.442 4.479 -3.758 4.795 -3.178 5.374 -2.862 5.059 -0.406 7.515 0.174 6.935 -2.862 3.899 -3.035 4.072" id="polygon143" style=""/>
    <path class="cls-3" d="M16.2721,7.4884a.95.95,0,0,1-1.3433,1.3433L13.1432,7.0461l-.58.58L14.349,9.4116a1.77,1.77,0,0,0,2.5029-2.503L15.0663,5.123l-.58.58Z" id="path145" style=""/>
    <path class="cls-3" d="M2.3226,19.0264a1.3218,1.3218,0,0,1,.8982-.3873l-.1471-.8131A2.147,2.147,0,1,0,5.4,20.152l-.813-.1471a1.3267,1.3267,0,1,1-2.264-.9785Z" id="path147" style=""/>
    <polygon class="cls-3" points="10.322 13.948 6.869 13.32 6.869 13.32 6.289 13.9 6.447 14.058 6.447 14.058 6.447 14.058 9.325 16.937 9.905 16.357 7.865 14.316 11.318 14.944 11.318 14.944 11.318 14.944 11.898 14.364 8.862 11.328 8.282 11.908 10.322 13.948" id="polygon149" style=""/>
    <polygon class="cls-3" points="10.421 9.769 9.525 10.665 10.104 11.245 11.001 10.348 13.457 12.805 14.037 12.225 11.58 9.769 12.477 8.872 11.897 8.293 11.001 9.189 10.421 9.769" id="polygon151" style=""/>
    <polygon class="cls-3" points="3.491 16.698 4.071 17.278 4.72 17.926 5.3 18.506 5.948 19.154 6.528 19.734 7.108 19.154 8.552 17.71 7.972 17.13 6.528 18.574 5.879 17.926 7.039 16.766 6.459 16.187 5.3 17.346 4.651 16.698 6.095 15.254 5.516 14.674 4.071 16.118 3.491 16.698" id="polygon153" style=""/>
    <path class="cls-3" d="M19.1888,3.0392a1.443,1.443,0,0,0-2.0386,0L15.84,4.35l3.0363,3.0363.58-.58-.9977-.9977.37-.37,1.6884.3069.6893-.6893-1.7635-.3206A1.4441,1.4441,0,0,0,19.1888,3.0392Zm-.58,1.4587-.7308.7309-.879-.879L17.73,3.619a.6215.6215,0,1,1,.8789.8789Z" id="path155" style=""/>
    <polygon class="cls-3" points="20.825 -0.636 21.203 1.442 19.125 1.064 18.436 1.754 21.49 2.309 22.722 3.54 23.301 2.96 22.07 1.729 21.515 -1.325 20.825 -0.636" id="polygon157" style=""/>
    <path class="cls-3" d="M26.2005-2.9771l-.0066-.0366a1.3507,1.3507,0,0,0-.3721-.6992,1.3593,1.3593,0,0,0-.254-.2,1.3578,1.3578,0,0,0-1.6656.2,1.3574,1.3574,0,0,0,0,1.9195l.0364.035.5809-.5809q-.0194-.0159-.0374-.0339a.5378.5378,0,0,1,0-.76.5192.5192,0,0,1,.76,0,1.0666,1.0666,0,0,1,.1729.4172c.0149.08.5481,3.0148.5481,3.0148l.6807-.6807h0L27.955-1.6931l-.58-.58-.8856.8857Z" id="path159" style=""/>
    <path class="cls-3" d="M23.1052,17.6227l1.6018-.2913.037-.0067a1.3675,1.3675,0,1,0-1.23-2.3089l-.0352.0366.5853.5853a.5037.5037,0,0,1,.0342-.0377.5419.5419,0,0,1,.7656,0,.5233.5233,0,0,1,0,.7656,1.0764,1.0764,0,0,1-.42.1742c-.08.015-3.0376.5523-3.0376.5523l.6858.6858h0l.9688.9688.9888-.18Z" id="path161" style=""/>
    <path class="cls-3" d="M23.0076,21.084a4.1848,4.1848,0,1,1,5.6672-4.7359l.8129-.1469a5.0083,5.0083,0,1,0-5.7955,5.9357l.1469-.8126A4.168,4.168,0,0,1,23.0076,21.084Z" id="path163" style=""/>
    <polygon class="cls-3" points="15.822 22.93 15.416 23.337 15.1 23.652 15.68 24.232 15.996 23.916 18.452 26.373 19.032 25.793 15.996 22.757 15.822 22.93" id="polygon165" style=""/>
  </g>
  <path class="cls-4" d="M20.973,2.0127h.7514V5.9474H20.973L19.1423,3.303V5.9474h-.7514v-3.73h0V2.0127h.7514L20.973,4.6571ZM20.6324,12.497l.9349,1.35h-.8932l-.8951-1.2929h-.48v1.2929h-.7515V9.9127h1.6985a1.321,1.321,0,0,1,.386,2.5843Zm.1835-1.2634a.57.57,0,0,0-.5695-.5695h-.947v1.139h.947A.57.57,0,0,0,20.8159,11.2336Zm-1.4385,6.5791v.7514h.4091v3.1833h.7514V17.8127ZM4.3621,2.7641a1.2115,1.2115,0,0,1,.8329.331l.4315-.6221a1.9674,1.9674,0,1,0,0,3.0141L5.195,4.865a1.2157,1.2157,0,1,1-.8329-2.1009ZM2.4736,9.9127v.7514H3.6349v3.1833h.7514V10.6641H5.5476V9.9127Zm2.6587,7.9L4.0306,19.4041,2.9289,17.8127H2.0356l1.6193,2.339v1.5957h.7514V20.1517l1.6193-2.339Zm5.6-15.8V5.9474h2.6231V5.196H11.484v-.84h1.5028V3.6043H11.484v-.84h1.8717V2.0127H10.7326Zm2.1819,10.2134a.87.87,0,1,1-1.7407,0V9.9122h-.7515v2.3139a1.6218,1.6218,0,1,0,3.2436,0V9.9122h-.7514Zm.1155,7.5525.0194-.028a1.2437,1.2437,0,1,0-2.2755-.6941l.0009.0462h.7527c-.0014-.0152-.0022-.0306-.0022-.0462a.4929.4929,0,0,1,.4923-.4924.4758.4758,0,0,1,.4923.4924.9771.9771,0,0,1-.1583.3823c-.042.0613-1.5982,2.3086-1.5982,2.3086h2.5815V20.996H12.1872Z" id="path169" style="opacity:0.3"/>
</svg>