<?xml version="1.0" encoding="utf-8"?>
<!-- Generator: Adobe Illustrator 22.0.1, SVG Export Plug-In . SVG Version: 6.00 Build 0)  -->
<svg version="1.1" id="Layer_1" xmlns="http://www.w3.org/2000/svg" xmlns:xlink="http://www.w3.org/1999/xlink" x="0px" y="0px"
	 viewBox="0 0 600 600" style="enable-background:new 0 0 600 600;" xml:space="preserve">
<style type="text/css">
	.st0{fill:none;}
	.st1{fill:#BEAF87;}
	.st2{fill:#404041;}
</style>
<rect x="-856.5" y="345.8" class="st0" width="10.5" height="120.8"/>
<rect x="-867" y="345.8" class="st0" width="10.5" height="120.8"/>
<rect x="-851.2" y="345.8" class="st0" width="10.5" height="120.8"/>
<rect x="-840.7" y="345.8" class="st0" width="10.5" height="120.8"/>
<rect x="-835.4" y="345.8" class="st0" width="10.5" height="120.8"/>
<rect x="-861.7" y="345.8" class="st0" width="10.5" height="120.8"/>

<line class="st0" x1="-909" y1="410" x2="-786.5" y2="410"/>
<rect x="-856.5" y="345.8" class="st0" width="10.5" height="120.8"/>
<rect x="-867" y="345.8" class="st0" width="10.5" height="120.8"/>
<rect x="-851.2" y="345.8" class="st0" width="10.5" height="120.8"/>
<rect x="-840.7" y="345.8" class="st0" width="10.5" height="120.8"/>
<rect x="-835.4" y="345.8" class="st0" width="10.5" height="120.8"/>
<rect x="-861.7" y="345.8" class="st0" width="10.5" height="120.8"/>
<g>
	<g>
		<g>
			<g>
				<g>
					<g>
						<path class="st2" d="M-1023.5,368l47.1-68.1l1.1-1.6c7.5-11.1,11.9-24.4,11.9-38.8c0-5.7-0.7-11.2-2-16.4
							c-7.4-30.5-34.8-53.1-67.6-53.1c-38.4,0-69.6,31.1-69.6,69.6c0,0.9,0,1.7,0.1,2.6h42.1c-0.1-0.9-0.1-1.7-0.1-2.6
							c0-15.2,12.4-27.5,27.5-27.5c15.2,0,28.3,11.5,27.5,27.5c-0.3,7.1-6.5,18-8.9,21.4c-2.4,3.4-89.4,129.1-89.4,129.1h49.3v0
							h69.7l29.1-42H-1023.5z"/>
					</g>
					<g>
						<polygon class="st2" points="-916,190 -916.4,190 -945.5,232 -909,232 -909,410 -867,410 -867,190 						"/>
					</g>
				</g>
				<g>
					<path class="st2" d="M-902.6,496c-26.2,11.1-54,16.7-82.8,16.7c-28.7,0-56.6-5.6-82.8-16.7c-25.3-10.7-48.1-26.1-67.6-45.6
						c-19.5-19.5-34.9-42.3-45.6-67.6c-11.1-26.2-16.7-54-16.7-82.8s5.6-56.6,16.7-82.8c10.7-25.3,26.1-48.1,45.6-67.6
						c19.5-19.5,42.3-34.9,67.6-45.6c26.2-11.1,54-16.7,82.8-16.7c28.7,0,56.6,5.6,82.8,16.7c11.7,5,22.9,10.9,33.5,17.9l24-34.5
						c-40.2-26.6-88.4-42.1-140.2-42.1c-140.7,0-254.7,114-254.7,254.7s114,254.7,254.7,254.7c54,0,104.1-16.8,145.3-45.5
						l-23.9-34.5C-876.1,483.1-888.9,490.2-902.6,496z"/>
				</g>
			</g>
		</g>
	</g>
	<g>
		<path class="st2" d="M-844.5,395.3c1.2,0.7,2.1,1.6,2.8,2.8c0.7,1.2,1,2.6,1,4.1c0,1.5-0.3,2.9-1,4.1c-0.7,1.2-1.6,2.1-2.8,2.8
			c-1.2,0.7-2.5,1-4,1c-1.5,0-2.8-0.3-4-1c-1.2-0.7-2.1-1.6-2.8-2.8c-0.7-1.2-1-2.6-1-4.1c0-1.5,0.3-2.9,1-4.1
			c0.7-1.2,1.6-2.1,2.8-2.8c1.2-0.7,2.5-1,4-1C-847.1,394.3-845.7,394.6-844.5,395.3z M-845.3,407.9c1-0.5,1.7-1.3,2.3-2.3
			c0.5-1,0.8-2.1,0.8-3.4c0-1.3-0.3-2.4-0.8-3.4c-0.6-1-1.3-1.8-2.3-2.3c-1-0.6-2.1-0.8-3.3-0.8c-1.2,0-2.3,0.3-3.3,0.8
			c-1,0.5-1.7,1.3-2.3,2.3c-0.5,1-0.8,2.1-0.8,3.4c0,1.3,0.3,2.4,0.8,3.4c0.5,1,1.3,1.8,2.3,2.3c1,0.6,2.1,0.8,3.3,0.8
			C-847.3,408.7-846.2,408.4-845.3,407.9z M-845.9,402.1c-0.4,0.4-0.9,0.7-1.6,0.8l2.5,3.4h-1.8l-2.3-3.4h-1.2v3.4h-1.4v-8.4h3.6
			c0.8,0,1.5,0.2,2,0.7c0.5,0.5,0.8,1.1,0.8,1.8C-845.3,401.1-845.5,401.7-845.9,402.1z M-850.3,401.7h2.2c0.9,0,1.4-0.4,1.4-1.2
			c0-0.4-0.1-0.7-0.4-0.9c-0.2-0.2-0.6-0.3-1-0.3h-2.2V401.7z"/>
	</g>
</g>
<line class="st0" x1="-909" y1="410" x2="-786.5" y2="410"/>
<g>
	<g>
		<g>
			<g>
				<g>
					<g>
						<g>
							<path class="st1" d="M321.4,317.9l61-88.2l1.4-2c9.7-14.4,15.3-31.6,15.3-50.3c0-7.3-0.9-14.5-2.5-21.3
								c-9.6-39.5-45.1-68.8-87.5-68.8c-49.7,0-90.1,40.3-90.1,90.1c0,1.1,0,2.2,0.1,3.3h54.5c-0.1-1.1-0.2-2.2-0.2-3.3
								c0-19.7,16-35.7,35.7-35.7c19.7,0,36.6,14.9,35.7,35.7c-0.4,9.2-8.4,23.2-11.5,27.7c-3,4.4-115.7,167.2-115.7,167.2h63.9v0
								h90.2l37.7-54.4H321.4z"/>
						</g>
					</g>
					<g>
						<g>
							<polygon class="st1" points="460.7,87.4 460.1,87.4 422.4,141.8 469.8,141.8 469.8,372.4 524.2,372.4 524.2,87.4 							"/>
						</g>
					</g>
				</g>
				<g>
					<g>
						<path class="st1" d="M478.1,483.7c-33.9,14.3-70,21.6-107.2,21.6s-73.3-7.3-107.2-21.6c-32.8-13.9-62.3-33.7-87.6-59
							c-25.3-25.3-45.2-54.8-59-87.6c-14.3-33.9-21.6-70-21.6-107.2s7.3-73.3,21.6-107.2c13.9-32.8,33.7-62.3,59-87.6
							s54.8-45.2,87.6-59c33.9-14.3,70-21.6,107.2-21.6s73.3,7.3,107.2,21.6c15.2,6.4,29.7,14.2,43.4,23.1l31-44.7
							C500.4-79.9,438-100,370.9-100C188.7-100,41,47.7,41,229.9s147.7,329.9,329.9,329.9c69.9,0,134.8-21.8,188.1-58.9l-31-44.7
							C512.4,467,495.7,476.2,478.1,483.7z"/>
					</g>
				</g>
			</g>
		</g>
	</g>
	<g>
		<g>
		</g>
		<g>
		</g>
	</g>
</g>
</svg>
